<?xml version="1.0" standalone="no"?>
<!DOCTYPE svg PUBLIC "-//W3C//DTD SVG 20010904//EN"
 "http://www.w3.org/TR/2001/REC-SVG-20010904/DTD/svg10.dtd">
<svg version="1.0" xmlns="http://www.w3.org/2000/svg"
 width="260.000000pt" height="260.000000pt" viewBox="0 0 260.000000 260.000000"
 preserveAspectRatio="xMidYMid meet">
<metadata>
Created by potrace 1.11, written by Peter Selinger 2001-2013
</metadata>
<g transform="translate(0.000000,260.000000) scale(0.100000,-0.100000)"
fill="#000000" stroke="none">
<path d="M985 2593 c-249 -29 -370 -69 -497 -163 -227 -169 -388 -589 -448
-1172 -53 -522 1 -865 151 -965 32 -21 38 -31 43 -71 8 -63 8 -72 0 -110 -5
-25 -1 -39 19 -66 15 -18 23 -36 20 -40 -4 -3 9 -6 27 -6 l34 0 -41 35 c-45
38 -57 66 -39 90 10 14 19 11 79 -29 37 -25 93 -52 125 -61 31 -9 72 -21 90
-27 19 -5 35 -8 37 -6 2 1 -1 46 -7 98 -13 125 -4 403 17 510 9 47 27 105 39
130 28 56 86 98 146 106 l46 6 18 -58 c10 -33 59 -156 108 -274 143 -341 178
-435 178 -478 l0 -39 75 -2 75 -2 0 42 c0 61 -27 230 -54 344 -24 100 -24 100
-5 131 11 18 31 40 45 49 33 21 44 9 44 -49 0 -33 -2 -37 -15 -26 -29 24 -17
-17 15 -48 26 -27 28 -33 20 -63 -12 -42 -13 -82 -1 -75 4 3 11 24 14 47 3 22
8 43 10 46 3 2 19 -3 35 -11 17 -9 62 -21 101 -28 l71 -12 0 -60 c0 -75 18
-64 22 14 3 52 4 54 35 61 35 7 63 25 63 40 0 5 -12 2 -26 -7 l-26 -17 8 49
c13 90 14 90 65 52 24 -19 51 -47 59 -63 16 -32 20 -146 8 -202 -9 -38 2 -44
17 -11 23 51 143 43 230 -14 42 -28 116 -108 155 -166 14 -22 15 -21 16 26 5
146 73 397 193 704 134 346 177 500 201 729 29 268 -60 485 -282 694 -137 129
-399 286 -573 344 -162 53 -570 95 -740 74z m805 -520 c32 -61 154 -187 304
-316 66 -56 121 -107 123 -114 2 -6 -10 -14 -27 -18 -17 -4 -29 -9 -26 -12 2
-3 22 1 42 7 37 13 38 12 81 -33 49 -52 50 -58 33 -238 -17 -182 -68 -338
-136 -418 -49 -59 -177 -146 -316 -216 -73 -37 -145 -77 -161 -87 -38 -27 -57
-67 -77 -167 l-17 -86 -89 0 c-81 0 -94 3 -144 31 l-55 31 -6 84 c-3 47 -13
98 -22 115 -17 32 -63 73 -128 112 l-37 22 -7 97 c-16 220 -1 523 29 572 3 5
33 25 68 45 104 63 240 170 321 255 113 118 169 211 196 329 7 28 16 52 20 52
3 0 17 -21 31 -47z m320 -1295 c-30 -127 -43 -287 -37 -458 l5 -157 -50 33
c-62 42 -118 57 -185 52 l-53 -5 0 69 c0 90 -17 128 -79 175 -27 21 -50 44
-50 52 -1 7 8 28 19 47 16 25 53 49 169 108 81 42 176 96 211 121 36 24 65 43
66 42 2 -1 -6 -37 -16 -79z m-1795 -535 c17 -3 47 -22 69 -40 36 -33 128 -83
152 -83 12 0 24 -31 24 -64 0 -17 -5 -18 -46 -12 -92 12 -243 105 -265 162
-11 31 -1 57 20 49 9 -4 30 -9 46 -12z"/>
<path d="M1950 1635 c0 -8 61 -36 70 -33 5 2 -9 11 -30 20 -22 9 -40 15 -40
13z"/>
<path d="M2113 1603 c9 -2 23 -2 30 0 6 3 -1 5 -18 5 -16 0 -22 -2 -12 -5z"/>
<path d="M2058 1593 c7 -3 16 -2 19 1 4 3 -2 6 -13 5 -11 0 -14 -3 -6 -6z"/>
<path d="M1584 1579 c-3 -6 -20 -19 -38 -30 -37 -22 -28 -25 13 -4 16 8 31 21
34 30 7 17 1 20 -9 4z"/>
<path d="M2111 1526 c-32 -39 -19 -136 18 -136 25 0 41 21 47 62 11 66 -32
114 -65 74z"/>
<path d="M1478 1523 c6 -2 18 -2 25 0 6 3 1 5 -13 5 -14 0 -19 -2 -12 -5z"/>
<path d="M1378 1513 c18 -2 45 -2 60 0 15 2 0 4 -33 4 -33 0 -45 -2 -27 -4z"/>
<path d="M1406 1468 c-23 -32 -20 -94 4 -118 11 -11 24 -20 30 -20 17 0 30 38
30 87 0 71 -33 96 -64 51z"/>
<path d="M1522 1178 c-20 -20 -14 -45 20 -83 39 -46 87 -70 166 -85 108 -22
258 5 282 51 15 27 12 56 -6 63 -33 13 -51 5 -80 -34 -34 -47 -57 -52 -52 -13
2 22 9 29 33 33 17 3 -10 6 -60 5 -83 0 -96 3 -171 38 -86 39 -113 44 -132 25z
m121 -29 c12 -7 24 -13 26 -15 4 -4 -52 -53 -61 -54 -5 0 -8 18 -8 40 0 42 8
47 43 29z m-53 -59 c0 -23 -10 -26 -28 -8 -18 18 -15 28 8 28 13 0 20 -7 20
-20z m108 -35 c39 -36 33 -42 -28 -25 -55 16 -66 25 -51 44 20 24 37 20 79
-19z"/>
</g>
</svg>
